<svg width="30" height="30" viewBox="0 0 30 30" fill="none" xmlns="http://www.w3.org/2000/svg">
<path d="M1.6182 14.1165L10.3682 5.36652C10.604 5.13882 10.9197 5.01282 11.2475 5.01567C11.5752 5.01852 11.8887 5.14998 12.1205 5.38174C12.3522 5.6135 12.4837 5.92702 12.4865 6.25476C12.4894 6.58251 12.3634 6.89826 12.1357 7.13401L5.51945 13.7503H27.502C27.8335 13.7503 28.1514 13.882 28.3858 14.1164C28.6203 14.3508 28.752 14.6687 28.752 15.0003C28.752 15.3318 28.6203 15.6497 28.3858 15.8841C28.1514 16.1186 27.8335 16.2503 27.502 16.2503H5.51945L12.1357 22.8665C12.2551 22.9818 12.3503 23.1198 12.4158 23.2723C12.4813 23.4248 12.5158 23.5888 12.5173 23.7548C12.5187 23.9207 12.4871 24.0853 12.4242 24.239C12.3614 24.3926 12.2686 24.5321 12.1512 24.6495C12.0338 24.7669 11.8943 24.8597 11.7406 24.9225C11.587 24.9854 11.4224 25.017 11.2565 25.0156C11.0905 25.0141 10.9265 24.9797 10.7739 24.9141C10.6214 24.8486 10.4835 24.7534 10.3682 24.634L1.6182 15.884C1.38386 15.6496 1.25222 15.3317 1.25222 15.0003C1.25222 14.6688 1.38386 14.3509 1.6182 14.1165Z" fill="white"/>
</svg>
