<svg width="30" height="30" viewBox="0 0 30 30" fill="none" xmlns="http://www.w3.org/2000/svg">
<path d="M28.3818 14.1165L19.6318 5.36652C19.396 5.13882 19.0803 5.01282 18.7525 5.01567C18.4248 5.01852 18.1113 5.14998 17.8795 5.38174C17.6478 5.6135 17.5163 5.92702 17.5135 6.25476C17.5106 6.58251 17.6366 6.89826 17.8643 7.13401L24.4805 13.7503H2.49805C2.16653 13.7503 1.84858 13.882 1.61416 14.1164C1.37974 14.3508 1.24805 14.6687 1.24805 15.0003C1.24805 15.3318 1.37974 15.6497 1.61416 15.8841C1.84858 16.1186 2.16653 16.2503 2.49805 16.2503H24.4805L17.8643 22.8665C17.7449 22.9818 17.6497 23.1198 17.5842 23.2723C17.5187 23.4248 17.4842 23.5888 17.4827 23.7548C17.4813 23.9207 17.5129 24.0853 17.5758 24.239C17.6386 24.3926 17.7314 24.5321 17.8488 24.6495C17.9662 24.7669 18.1057 24.8597 18.2594 24.9225C18.413 24.9854 18.5776 25.017 18.7435 25.0156C18.9095 25.0141 19.0735 24.9797 19.2261 24.9141C19.3786 24.8486 19.5165 24.7534 19.6318 24.634L28.3818 15.884C28.6161 15.6496 28.7478 15.3317 28.7478 15.0003C28.7478 14.6688 28.6161 14.3509 28.3818 14.1165Z" fill="url(#paint0_linear_21_1476)"/>
<defs>
<linearGradient id="paint0_linear_21_1476" x1="14.9979" y1="25.0156" x2="14.9979" y2="5.01562" gradientUnits="userSpaceOnUse">
<stop stop-color="#000E38"/>
<stop offset="1" stop-color="#3F186A"/>
</linearGradient>
</defs>
</svg>
